# WaveFront *.obj file (generated by CINEMA 4D)

mtllib ./Antenna.mtl

v 276.99615478515625 2665.68237304687500 -295.49542236328125
v 276.99615478515625 3265.68237304687500 -295.49542236328125
v 876.99615478515625 2665.68237304687500 -295.49542236328125
v 876.99615478515625 3265.68237304687500 -295.49542236328125
v 876.99615478515625 2665.68237304687500 304.50457763671875
v 876.99615478515625 3265.68237304687500 304.50457763671875
v 276.99615478515625 2665.68237304687500 304.50457763671875
v 276.99615478515625 3265.68237304687500 304.50457763671875
# 8 vertices

vn 0.00000000000000 0.00000000000000 -1.00000000000000
vn 1.00000000000000 0.00000000000000 0.00000000000000
vn 0.00000000000000 0.00000000000000 1.00000000000000
vn -1.00000000000000 0.00000000000000 0.00000000000000
vn 0.00000000000000 1.00000000000000 0.00000000000000
vn 0.00000000000000 -1.00000000000000 0.00000000000000
# 6 normals

vt 0.00000000000000 0.00000000000000 0.00000000000000
vt 0.00000000000000 1.00000000000000 0.00000000000000
vt 1.00000000000000 1.00000000000000 0.00000000000000
vt 1.00000000000000 0.00000000000000 0.00000000000000
# 4 texture coordinates

o Cube.1
usemtl Mat.1
f 1/1/1 2/2/1 4/3/1 3/4/1
f 3/1/2 4/2/2 6/3/2 5/4/2
f 5/1/3 6/2/3 8/3/3 7/4/3
f 7/1/4 8/2/4 2/3/4 1/4/4
f 2/1/5 8/2/5 6/3/5 4/4/5
f 7/1/6 1/2/6 3/3/6 5/4/6

v -100.00000000000000 1084.79162597656250 -100.00000000000000
v -100.00000000000000 1902.00891113281250 -100.00000000000000
v 100.00000000000000 1084.79162597656250 -100.00000000000000
v 100.00000000000000 1902.00891113281250 -100.00000000000000
v 100.00000000000000 1084.79162597656250 100.00000000000000
v 100.00000000000000 1902.00891113281250 100.00000000000000
v -100.00000000000000 1084.79162597656250 100.00000000000000
v -100.00000000000000 1902.00891113281250 100.00000000000000
v 616.58184814453125 2968.85180664062500 -100.00002288818359
v 698.06097412109375 2786.20141601562500 -100.00002288818359
v 698.06097412109375 2786.20141601562500 99.99997711181641
v 616.58184814453125 2968.85180664062500 99.99997711181641
# 12 vertices

vn -0.00000000479839 -0.00000000861202 -1.00000000000000
vn 0.95611542463303 -0.29299017786980 0.00000000000000
vn 0.00000000662833 0.00000000678726 1.00000000000000
vn -0.95658844709396 0.29144227504730 -0.00000000017618
vn 0.91325181722641 0.40739557147026 0.00000000000000
vn 0.99616974592209 -0.08744075149298 0.00000000000000
vn -0.00000000959678 -0.00000001722404 -1.00000000000000
vn 0.00000001325667 0.00000001357451 1.00000000000000
vn -0.83012282848358 0.55758059024811 -0.00000000033706
# 9 normals

# 0 texture coordinate

o Cube
usemtl mat1
f 9/1/1 10/2/7 12/3/7 11/4/1
f 11/1/2 12/2/8 14/3/8 13/4/2
f 13/1/3 14/2/9 16/3/9 15/4/3
f 15/1/4 16/2/10 10/3/10 9/4/4
f 17/1/11 20/2/11 19/3/12 18/4/12
f 15/1/6 9/2/6 11/3/6 13/4/6
f 10/1/7 17/1/13 18/4/13 12/4/7
f 12/4/8 18/4/12 19/3/12 14/3/8
f 14/3/9 19/3/14 20/2/14 16/2/9
f 16/2/10 20/2/15 17/1/15 10/1/10

